<svg preserveAspectRatio="none" overflow="visible" style="display: block;" width="20" height="20" viewBox="0 0 20 20" fill="none" xmlns="http://www.w3.org/2000/svg">
<g id="&#229;&#136;&#151;&#232;&#161;&#168;&#232;&#167;&#134;&#229;&#155;&#190; icon">
<path id="Vector" d="M5 2.5H3C2.44772 2.5 2 2.94772 2 3.5V5.5C2 6.05228 2.44772 6.5 3 6.5H5C5.55228 6.5 6 6.05228 6 5.5V3.5C6 2.94772 5.55228 2.5 5 2.5Z" stroke="#181B25" stroke-width="1.6" stroke-linecap="round" stroke-linejoin="round"/>
<path id="Vector_2" d="M5 8H3C2.44772 8 2 8.44772 2 9V11C2 11.5523 2.44772 12 3 12H5C5.55228 12 6 11.5523 6 11V9C6 8.44772 5.55228 8 5 8Z" stroke="#181B25" stroke-width="1.6" stroke-linecap="round" stroke-linejoin="round"/>
<path id="Vector_3" d="M5 13.5H3C2.44772 13.5 2 13.9477 2 14.5V16.5C2 17.0523 2.44772 17.5 3 17.5H5C5.55228 17.5 6 17.0523 6 16.5V14.5C6 13.9477 5.55228 13.5 5 13.5Z" stroke="#181B25" stroke-width="1.6" stroke-linecap="round" stroke-linejoin="round"/>
<path id="Vector_4" d="M9 4.5H18M9 10H18M9 15.5H18" stroke="#181B25" stroke-width="1.6" stroke-linecap="round" stroke-linejoin="round"/>
</g>
</svg>
