<?xml version="1.0" encoding="UTF-8" standalone="no"?>
<!-- Created with Inkscape (http://www.inkscape.org/) -->

<svg
   width="512"
   height="512"
   viewBox="0 0 135.46666 135.46667"
   version="1.1"
   id="svg5"
   inkscape:version="1.2.2 (b0a8486541, 2022-12-01)"
   sodipodi:docname="Participation_Icon.svg"
   xmlns:inkscape="http://www.inkscape.org/namespaces/inkscape"
   xmlns:sodipodi="http://sodipodi.sourceforge.net/DTD/sodipodi-0.dtd"
   xmlns="http://www.w3.org/2000/svg"
   xmlns:svg="http://www.w3.org/2000/svg">
  <sodipodi:namedview
     id="namedview7"
     pagecolor="#ffffff"
     bordercolor="#666666"
     borderopacity="1.0"
     inkscape:pageshadow="2"
     inkscape:pageopacity="0.0"
     inkscape:pagecheckerboard="0"
     inkscape:document-units="mm"
     showgrid="false"
     units="px"
     width="512px"
     inkscape:zoom="0.32252323"
     inkscape:cx="-351.91264"
     inkscape:cy="434.07726"
     inkscape:window-width="1920"
     inkscape:window-height="1017"
     inkscape:window-x="-8"
     inkscape:window-y="-8"
     inkscape:window-maximized="1"
     inkscape:current-layer="layer1"
     inkscape:showpageshadow="2"
     inkscape:deskcolor="#d1d1d1" />
  <defs
     id="defs2" />
  <g
     inkscape:label="Layer 1"
     inkscape:groupmode="layer"
     id="layer1">
    <g
       id="g3947"
       transform="matrix(4.7301159,0,0,4.7301159,-491.39744,-618.66302)"
       style="fill:#000000;fill-opacity:1">
      <g
         id="g3866-6"
         transform="matrix(-1,0,0,1,236.41314,2.453863e-4)"
         style="fill:#000000;fill-opacity:1">
        <path
           style="fill:#000000;fill-opacity:1;stroke:none;stroke-width:0.264583px;stroke-linecap:butt;stroke-linejoin:miter;stroke-opacity:1"
           d="m 107.69714,135.10211 -3.07632,4.15304 c -0.4056,0.73806 1.28561,1.39287 1.45559,0.97569 l 3.05635,-4.12324 c 0.29452,-0.58899 -1.16435,-1.3221 -1.43562,-1.00549 z"
           id="path1669-3"
           sodipodi:nodetypes="ccccc" />
        <path
           style="fill:#000000;fill-opacity:1;stroke:none;stroke-width:0.264583px;stroke-linecap:butt;stroke-linejoin:miter;stroke-opacity:1"
           d="m 109.97875,136.89663 -3.17887,3.92232 c 0.95505,1.92033 2.30884,3.78567 5.22976,5.43485 1.13694,0.57679 1.52461,-0.27325 1.25617,-0.87163 -0.17395,-0.61555 0.25328,-0.50155 0.48708,-0.33327 1.12138,0.56361 1.12685,-0.26803 0.84599,-0.71781 -0.18499,-0.40579 -0.01,-0.54139 0.38455,-0.51272 0.83244,0.44172 2.54662,0.24246 1.30743,-1.33307 -0.42105,-0.35694 -0.31752,-0.54823 0.17946,-0.61527 1.29713,-0.0161 0.96699,-1.0483 0.3589,-1.35871 l -2.99942,-1.8458 c -0.56685,-0.44332 -0.58885,-0.63899 0.43581,-0.3589 2.54988,0.64409 1.69528,-0.0404 0.33327,-0.9229 -0.89469,-0.37775 -1.83569,-0.57024 -2.92251,-0.17946 -0.67225,0.32842 -0.95923,-0.20718 -1.71762,-0.30763 z"
           id="path2283-9"
           sodipodi:nodetypes="ccccccccccccccc" />
      </g>
      <path
         style="fill:#000000;fill-opacity:1;stroke:none;stroke-width:0.264583px;stroke-linecap:butt;stroke-linejoin:miter;stroke-opacity:1"
         d="m 106.31744,143.60559 1.46833,1.75836 c 0.84921,3.36239 2.52259,5.90062 5.11193,7.52289 l 0.65259,2.32031 c -5.81459,-3.44173 -6.80543,-7.48643 -7.23285,-11.60156 z"
         id="path869"
         sodipodi:nodetypes="ccccc" />
      <path
         style="fill:#000000;fill-opacity:1;stroke:none;stroke-width:0.264583px;stroke-linecap:butt;stroke-linejoin:miter;stroke-opacity:1"
         d="m 130.21848,143.42432 -1.46833,1.75836 c -0.84921,3.36239 -2.52259,5.90062 -5.11193,7.52289 l -0.65259,2.32031 c 5.81459,-3.44173 6.80543,-7.48643 7.23285,-11.60156 z"
         id="path869-0"
         sodipodi:nodetypes="ccccc" />
      <path
         style="fill:#000000;fill-opacity:1;stroke:none;stroke-width:0.264583px;stroke-linecap:butt;stroke-linejoin:miter;stroke-opacity:1"
         d="m 110.49147,134.94829 2.30725,0.25636 c 4.49469,-2.26481 7.5728,-1.47853 10.3057,0.0513 l 2.35852,-0.46145 c -4.99049,-3.25383 -9.98098,-3.69499 -14.97147,0.15379 z"
         id="path1435"
         sodipodi:nodetypes="ccccc" />
      <g
         id="g3866"
         style="fill:#000000;fill-opacity:1">
        <path
           style="fill:#000000;fill-opacity:1;stroke:none;stroke-width:0.264583px;stroke-linecap:butt;stroke-linejoin:miter;stroke-opacity:1"
           d="m 107.69714,135.10211 -3.07632,4.15304 c -0.4056,0.73806 1.28561,1.39287 1.45559,0.97569 l 3.05635,-4.12324 c 0.29452,-0.58899 -1.16435,-1.3221 -1.43562,-1.00549 z"
           id="path1669"
           sodipodi:nodetypes="ccccc" />
        <path
           style="fill:#000000;fill-opacity:1;stroke:none;stroke-width:0.264583px;stroke-linecap:butt;stroke-linejoin:miter;stroke-opacity:1"
           d="m 109.97875,136.89663 -3.17887,3.92232 c 0.95505,1.92033 2.30884,3.78567 5.22976,5.43485 1.13694,0.57679 1.52461,-0.27325 1.25617,-0.87163 -0.17395,-0.61555 0.25328,-0.50155 0.48708,-0.33327 1.12138,0.56361 1.12685,-0.26803 0.84599,-0.71781 -0.18499,-0.40579 -0.01,-0.54139 0.38455,-0.51272 0.83244,0.44172 2.54662,0.24246 1.30743,-1.33307 -0.42105,-0.35694 -0.31752,-0.54823 0.17946,-0.61527 1.29713,-0.0161 0.96699,-1.0483 0.3589,-1.35871 l -2.99942,-1.8458 c -0.56685,-0.44332 -0.58885,-0.63899 0.43581,-0.3589 2.54988,0.64409 1.69528,-0.0404 0.33327,-0.9229 -0.89469,-0.37775 -1.83569,-0.57024 -2.92251,-0.17946 -0.67225,0.32842 -0.95923,-0.20718 -1.71762,-0.30763 z"
           id="path2283"
           sodipodi:nodetypes="ccccccccccccccc" />
      </g>
      <g
         id="g3866-6-8"
         transform="rotate(-129,117.31601,144.57827)"
         style="fill:#000000;fill-opacity:1">
        <path
           style="fill:#000000;fill-opacity:1;stroke:none;stroke-width:0.264583px;stroke-linecap:butt;stroke-linejoin:miter;stroke-opacity:1"
           d="m 107.69714,135.10211 -3.07632,4.15304 c -0.4056,0.73806 1.28561,1.39287 1.45559,0.97569 l 3.05635,-4.12324 c 0.29452,-0.58899 -1.16435,-1.3221 -1.43562,-1.00549 z"
           id="path1669-3-0"
           sodipodi:nodetypes="ccccc" />
        <path
           style="fill:#000000;fill-opacity:1;stroke:none;stroke-width:0.264583px;stroke-linecap:butt;stroke-linejoin:miter;stroke-opacity:1"
           d="m 109.97875,136.89663 -3.17887,3.92232 c 0.95505,1.92033 2.30884,3.78567 5.22976,5.43485 1.13694,0.57679 1.52461,-0.27325 1.25617,-0.87163 -0.17395,-0.61555 0.25328,-0.50155 0.48708,-0.33327 1.12138,0.56361 1.12685,-0.26803 0.84599,-0.71781 -0.18499,-0.40579 -0.01,-0.54139 0.38455,-0.51272 0.83244,0.44172 2.54662,0.24246 1.30743,-1.33307 -0.42105,-0.35694 -0.31752,-0.54823 0.17946,-0.61527 1.29713,-0.0161 0.96699,-1.0483 0.3589,-1.35871 l -2.99942,-1.8458 c -0.56685,-0.44332 -0.58885,-0.63899 0.43581,-0.3589 2.54988,0.64409 1.69528,-0.0404 0.33327,-0.9229 -0.89469,-0.37775 -1.83569,-0.57024 -2.92251,-0.17946 -0.67225,0.32842 -0.95923,-0.20718 -1.71762,-0.30763 z"
           id="path2283-9-3"
           sodipodi:nodetypes="ccccccccccccccc" />
      </g>
    </g>
  </g>
</svg>
