<svg xmlns="http://www.w3.org/2000/svg" viewBox="0 0 720 720"><path d="M648 522L647 523L655 531L658 540L658 551L657 552L657 556L658 556L661 549L661 540L655 527L651 523Z M545 417L544 418L554 427L559 437L560 445L562 444L562 439L558 429L549 419Z M175 389L164 393L158 398L149 412L148 416L149 419L150 419L151 412L156 404L168 393L176 390Z M260 124L260 130L263 144L261 146L260 156L259 157L259 166L260 167L259 180L258 181L255 180L252 172L247 179L244 187L244 190L247 194L246 197L230 201L209 211L196 220L189 227L182 238L182 240L184 242L185 241L184 238L186 234L206 216L223 207L232 204L236 205L235 208L223 216L209 231L206 237L206 240L210 244L210 247L198 257L186 270L182 278L182 284L184 285L183 284L183 278L187 271L201 257L217 246L226 242L231 242L233 244L233 247L207 271L189 292L180 306L173 320L173 323L171 327L171 332L173 333L197 310L205 304L209 303L210 306L201 323L194 343L193 348L194 360L196 362L199 362L205 354L208 355L207 378L208 380L210 380L218 356L227 339L229 337L231 337L232 338L232 362L234 370L236 373L236 377L229 385L227 390L230 392L237 384L239 384L242 387L244 394L245 394L246 391L248 391L250 393L251 400L250 401L244 401L202 393L200 397L200 403L198 406L190 406L180 413L179 416L173 417L157 431L154 446L154 459L156 467L169 480L171 480L173 482L175 482L188 489L196 488L201 485L219 482L227 477L238 474L244 469L252 465L248 466L245 469L242 468L242 462L245 459L241 452L242 449L262 451L264 446L264 428L265 427L265 418L266 417L266 405L261 402L261 398L263 396L266 396L268 398L268 400L274 410L282 418L282 420L279 421L282 421L283 425L292 425L285 421L285 406L286 405L288 405L295 413L295 416L297 419L301 418L301 408L303 404L309 406L315 412L315 414L313 416L307 417L309 419L309 421L305 424L305 427L300 432L299 446L291 450L286 449L281 454L272 471L264 483L257 490L248 495L227 501L211 502L210 499L202 502L197 501L187 505L164 520L149 533L134 552L130 563L132 565L151 547L154 548L154 552L149 567L149 582L151 586L156 585L157 588L149 603L147 609L147 618L149 618L152 611L163 596L166 595L172 604L179 611L179 615L175 623L172 626L166 640L166 642L170 648L177 654L182 654L186 652L193 645L197 639L200 631L198 630L199 626L201 626L210 633L211 630L215 630L217 632L219 632L222 626L225 625L231 631L240 637L254 644L263 647L264 641L269 631L276 630L283 634L285 634L288 637L290 628L294 619L302 618L305 620L311 620L312 625L308 629L309 634L308 643L300 657L302 670L317 670L318 671L341 670L342 671L347 669L349 671L356 671L357 672L396 671L399 666L400 658L396 649L397 631L392 627L392 625L394 623L407 623L411 637L414 635L425 634L427 636L432 655L441 652L443 650L448 651L450 648L465 636L468 636L470 638L469 651L480 648L493 667L495 667L503 660L509 651L507 646L507 642L504 636L504 633L510 626L516 625L527 634L528 640L534 651L548 663L560 667L574 667L584 663L587 659L579 661L566 656L559 649L556 642L557 641L577 642L588 639L599 632L607 623L611 615L616 612L623 605L628 597L632 584L632 570L630 562L633 561L640 572L641 571L640 561L634 547L621 532L607 523L595 518L595 516L603 506L604 502L573 513L555 517L546 517L525 502L525 500L533 493L539 485L540 465L534 445L526 437L522 436L520 434L520 432L516 428L516 424L513 417L513 411L516 410L520 405L525 394L528 379L528 362L529 361L532 362L533 366L534 400L535 401L538 397L540 387L541 370L540 369L539 352L535 334L536 333L545 333L552 331L563 325L565 325L567 323L559 304L554 297L540 283L540 281L546 275L553 264L561 255L568 242L566 237L572 228L572 226L570 225L570 222L573 215L572 209L577 202L584 188L582 187L561 195L553 196L551 194L551 192L554 188L555 180L551 179L522 194L513 194L507 196L501 196L476 201L471 204L465 204L445 190L431 183L422 181L419 179L404 176L392 176L391 177L375 176L374 175L375 171L369 166L368 161L358 143L348 132L340 127L334 125L328 125L343 131L354 141L362 152L366 160L365 163L362 163L349 157L333 154L324 147L312 140L310 141L312 141L313 144L310 145L309 143L307 143L298 138L285 123L283 119L281 119L281 136L280 137L278 137L263 124Z" fill="none" stroke="currentColor" stroke-width="5" stroke-dasharray="11 9" stroke-linecap="round" stroke-linejoin="round"/></svg>