<svg xmlns="http://www.w3.org/2000/svg" viewBox="0 0 720 720"><path d="M256 130L258 146L254 147L258 156L259 176L256 177L254 171L251 184L245 189L240 198L241 205L229 211L217 219L203 232L194 245L195 246L196 243L204 235L218 226L231 221L234 222L234 224L205 253L205 255L225 256L228 257L229 260L205 287L197 299L191 312L193 313L193 311L199 301L213 285L215 285L216 286L215 294L212 300L205 322L204 337L205 339L209 330L215 321L225 311L229 305L232 304L233 308L228 321L224 345L222 349L222 355L220 363L220 379L222 384L225 379L228 366L231 365L232 366L231 393L234 405L236 406L238 404L237 400L243 384L249 371L252 370L253 371L254 390L257 399L263 408L265 407L266 397L268 395L270 395L275 405L278 420L281 421L283 417L283 414L285 412L287 412L298 422L298 424L297 425L290 425L285 427L283 441L275 444L268 453L268 456L262 462L258 471L247 485L229 518L223 535L222 544L226 537L245 514L248 515L247 520L235 542L232 545L225 557L208 578L207 582L198 592L199 593L205 587L216 581L233 567L236 568L233 579L225 596L212 614L203 630L223 606L225 606L226 607L226 615L231 617L238 624L244 628L244 633L240 636L236 644L234 652L245 661L252 664L264 651L263 643L266 633L272 634L291 644L295 644L294 642L295 636L298 631L301 631L306 634L313 636L314 639L319 638L326 641L329 645L333 642L336 621L343 617L348 618L350 616L352 616L354 619L354 622L350 627L351 638L349 640L348 646L342 658L342 664L345 672L354 672L355 673L375 673L376 672L385 672L386 671L388 660L381 639L382 627L378 622L378 617L380 615L388 612L396 614L403 614L405 618L405 622L401 625L402 637L395 658L395 667L398 672L407 672L408 673L427 673L428 672L434 672L435 673L437 672L440 665L440 660L431 635L432 625L429 622L430 617L441 619L443 621L448 641L450 643L452 640L464 636L465 634L478 631L480 633L483 646L486 650L502 640L509 634L513 633L518 642L517 649L526 660L527 663L536 662L546 652L546 649L542 639L538 634L538 631L542 627L547 627L551 631L555 628L557 628L565 637L582 646L592 648L602 648L609 645L601 645L595 640L590 632L589 626L590 625L606 626L614 624L624 617L628 617L635 614L646 604L651 594L653 587L654 574L653 573L652 561L655 560L661 565L666 576L669 570L669 556L665 542L657 529L644 516L628 507L622 506L619 504L619 502L628 492L635 478L624 487L614 493L598 499L582 500L581 499L571 498L558 485L541 461L529 438L530 435L525 428L521 417L522 406L519 399L520 394L524 393L530 403L532 411L539 405L543 397L546 386L547 365L549 361L552 362L555 368L560 384L560 392L563 390L567 378L568 344L565 330L561 320L554 311L554 308L572 295L582 283L577 275L568 266L555 258L547 255L546 252L553 241L555 233L566 217L572 203L572 200L568 199L567 196L573 181L575 179L575 175L578 171L578 169L574 170L573 166L577 158L580 146L570 150L561 156L558 156L557 155L557 149L558 148L557 144L543 152L528 163L524 163L516 167L497 171L477 178L468 184L465 184L445 176L426 171L405 171L396 173L385 164L378 160L370 158L361 158L348 145L337 138L321 131L319 131L332 137L343 144L356 156L356 158L351 161L343 161L327 155L315 149L312 146L294 136L288 131L276 124L274 124L275 135L276 136L275 139L273 139L272 137L266 137Z" fill="none" stroke="currentColor" stroke-width="5" stroke-dasharray="11 9" stroke-linecap="round" stroke-linejoin="round"/></svg>