<svg xmlns="http://www.w3.org/2000/svg" viewBox="0 0 720 720"><path d="M521 127L501 140L484 147L443 158L424 168L408 182L380 176L348 175L347 176L325 178L300 185L286 171L274 163L261 157L223 146L208 139L192 128L189 128L187 130L186 134L187 151L184 152L179 148L174 150L175 170L179 189L185 205L185 208L184 209L179 209L177 211L177 214L181 222L191 235L191 240L190 241L192 245L200 253L200 255L187 271L175 289L170 300L168 302L158 323L150 347L149 355L147 360L146 376L145 377L146 396L149 406L151 408L153 408L155 405L155 397L157 387L164 364L170 352L173 353L172 371L171 372L171 399L173 408L172 422L167 432L154 446L143 452L138 453L136 456L138 459L142 461L150 463L159 463L160 464L160 466L153 480L148 498L149 523L154 535L162 544L166 543L167 533L170 532L179 549L191 561L203 567L208 568L211 565L209 556L209 549L210 548L212 548L222 559L222 562L208 579L207 583L208 585L224 595L224 598L219 608L219 612L221 615L240 628L247 628L251 625L255 616L262 605L265 605L281 613L302 621L307 617L311 603L313 600L315 600L316 601L316 622L307 653L307 664L309 668L313 671L324 672L325 673L349 673L356 668L357 666L357 625L358 624L358 613L360 605L363 606L364 616L365 617L366 666L368 670L374 673L402 673L410 671L415 666L416 663L415 650L413 645L411 633L408 626L407 616L406 615L406 604L407 603L410 604L413 616L416 620L420 620L443 610L451 608L454 612L459 626L466 633L469 633L475 630L483 628L486 631L494 631L504 635L513 637L521 637L522 638L534 637L545 634L554 629L555 626L551 623L551 621L573 609L586 596L596 577L600 564L601 551L599 549L594 549L593 548L595 540L595 525L591 511L583 499L581 499L578 502L573 511L561 522L554 525L548 525L547 524L552 503L551 485L547 469L550 467L559 466L568 461L569 457L551 450L540 438L540 435L544 428L547 419L548 406L549 405L552 405L554 407L564 410L571 410L575 406L566 396L558 382L550 357L549 349L542 323L534 300L528 286L516 264L508 254L508 252L517 242L517 234L525 224L531 214L531 210L528 208L524 209L523 205L529 191L533 177L534 166L536 159L536 151L534 149L531 149L527 152L524 151L524 129Z" fill="none" stroke="currentColor" stroke-width="5" stroke-dasharray="11 9" stroke-linecap="round" stroke-linejoin="round"/></svg>